# Blender v2.77 (sub 0) OBJ File: 'hangar.blend'
# www.blender.org
mtllib hangar.mtl
o Cube_Cube.001
v -4.000000 2.250000 0.000000
v -2.000000 2.250000 -0.000000
v -4.000000 2.206767 -0.390181
v -2.000000 2.206767 -0.390181
v -4.000000 2.078729 -0.765367
v -2.000000 2.078729 -0.765367
v -4.000000 1.870807 -1.111140
v -2.000000 1.870807 -1.111140
v -4.000000 1.590990 -1.414214
v -2.000000 1.590990 -1.414214
v -4.000000 1.250033 -1.662939
v -2.000000 1.250033 -1.662939
v -4.000000 0.861038 -1.847759
v -2.000000 0.861038 -1.847759
v -4.000000 0.438953 -1.961571
v -2.000000 0.438953 -1.961571
v -4.000000 0.000000 -2.000000
v -2.000000 0.000000 -2.000000
v -4.000000 0.000002 2.000000
v -2.000000 0.000002 2.000000
v -4.000000 0.438956 1.961570
v -2.000000 0.438956 1.961570
v -4.000000 0.861040 1.847758
v -2.000000 0.861040 1.847758
v -4.000000 1.250035 1.662938
v -2.000000 1.250035 1.662938
v -4.000000 1.590992 1.414212
v -2.000000 1.590992 1.414212
v -4.000000 1.870808 1.111138
v -2.000000 1.870808 1.111138
v -4.000000 2.078730 0.765364
v -2.000000 2.078730 0.765364
v -4.000000 2.206768 0.390178
v -2.000000 2.206768 0.390178
v -2.000000 3.500000 0.000001
v 2.000000 3.500000 0.000001
v -2.000000 3.442356 -0.585270
v 2.000000 3.442356 -0.585270
v -2.000000 3.271638 -1.148049
v 2.000000 3.271638 -1.148049
v -2.000000 2.994409 -1.666710
v 2.000000 2.994409 -1.666710
v -2.000000 2.621320 -2.121319
v 2.000000 2.621320 -2.121319
v -2.000000 2.166711 -2.494408
v 2.000000 2.166710 -2.494408
v -2.000000 1.648050 -2.771637
v 2.000000 1.648050 -2.771637
v -2.000000 1.085271 -2.942354
v 2.000000 1.085271 -2.942354
v -2.000000 0.500000 -2.999999
v 2.000000 0.500000 -2.999999
v -2.000000 0.500003 3.000001
v 2.000000 0.500003 3.000001
v -2.000000 1.085274 2.942357
v 2.000000 1.085274 2.942357
v -2.000000 1.648054 2.771638
v 2.000000 1.648053 2.771638
v -2.000000 2.166714 2.494408
v 2.000000 2.166714 2.494408
v -2.000000 2.621323 2.121319
v 2.000000 2.621323 2.121319
v -2.000000 2.994411 1.666709
v 2.000000 2.994411 1.666709
v -2.000000 3.271640 1.148048
v 2.000000 3.271640 1.148048
v -2.000000 3.442357 0.585268
v 2.000000 3.442357 0.585268
v -4.000000 0.000000 5.000000
v -2.666667 0.500000 3.333333
v -4.000000 0.000000 -5.000000
v -2.666667 0.500000 -3.333333
v 4.000000 0.000000 5.000000
v 2.666667 0.500000 3.333333
v 4.000000 0.000000 -5.000000
v 2.666667 0.500000 -3.333333
v -6.025001 2.300000 0.000000
v -6.025001 2.256767 -0.195090
v -6.025001 2.128729 -0.382683
v -6.025001 1.920807 -0.555570
v -6.025001 1.640990 -0.707106
v -6.025001 1.300033 -0.831469
v -6.025001 0.911038 -0.923879
v -6.025001 0.488953 -0.980785
v -6.025001 0.050000 -1.000000
v -6.025001 0.050002 1.000000
v -6.025001 0.488956 0.980785
v -6.025001 0.911040 0.923880
v -6.025001 1.300035 0.831469
v -6.025001 1.640992 0.707106
v -6.025001 1.920809 0.555570
v -6.025001 2.128730 0.382682
v -6.025001 2.256768 0.195089
v -6.075000 2.300000 0.000000
v -6.075000 2.256767 -0.195090
v -6.075000 2.128729 -0.382683
v -6.075000 1.920807 -0.555570
v -6.075000 1.640990 -0.707106
v -6.075000 1.300033 -0.831469
v -6.075000 0.911038 -0.923879
v -6.075000 0.488953 -0.980785
v -6.075000 0.050000 -1.000000
v -6.075000 0.050002 1.000000
v -6.075000 0.488956 0.980785
v -6.075000 0.911040 0.923880
v -6.075000 1.300035 0.831469
v -6.075000 1.640992 0.707106
v -6.075000 1.920809 0.555570
v -6.075000 2.128730 0.382682
v -6.075000 2.256768 0.195089
v -6.000000 2.250000 0.000000
v -6.000000 2.206767 -0.195090
v -6.000000 2.078729 -0.382683
v -6.000000 1.870807 -0.555570
v -6.000000 1.590990 -0.707106
v -6.000000 1.250033 -0.831469
v -6.000000 0.861038 -0.923879
v -6.000000 0.438953 -0.980785
v -6.000000 0.000000 -1.000000
v -6.000000 0.000002 1.000000
v -6.000000 0.438956 0.980785
v -6.000000 0.861040 0.923880
v -6.000000 1.250035 0.831469
v -6.000000 1.590992 0.707106
v -6.000000 2.206768 0.195089
v -5.975000 2.300000 0.000000
v -5.975000 2.256767 -0.195090
v -5.975000 2.128729 -0.382683
v -5.975000 1.920807 -0.555570
v -5.975000 1.640990 -0.707106
v -5.975000 1.300033 -0.831469
v -5.975000 0.911038 -0.923879
v -5.975000 0.488953 -0.980785
v -5.975000 0.050000 -1.000000
v -5.975000 0.050002 1.000000
v -5.975000 0.488956 0.980785
v -5.975000 0.911040 0.923880
v -5.975000 1.300035 0.831469
v -5.975000 1.640992 0.707106
v -5.975000 1.920809 0.555570
v -5.975000 2.128730 0.382682
v -5.975000 2.256768 0.195089
v -5.925000 2.300000 0.000000
v -5.925000 2.256767 -0.195090
v -5.925000 2.128729 -0.382683
v -5.925000 1.920807 -0.555570
v -5.925000 1.640990 -0.707106
v -5.925000 1.300033 -0.831469
v -5.925000 0.911038 -0.923879
v -5.925000 0.488953 -0.980785
v -5.925000 0.050000 -1.000000
v -5.925000 0.050002 1.000000
v -5.925000 0.488956 0.980785
v -5.925000 0.911040 0.923880
v -5.925000 1.300035 0.831469
v -5.925000 1.640992 0.707106
v -5.925000 1.920809 0.555570
v -5.925000 2.128730 0.382682
v -5.925000 2.256768 0.195089
v -4.000000 2.206767 -0.195090
v -4.000000 2.078729 -0.382683
v -4.000000 1.870807 -0.555570
v -4.000000 0.000000 -1.000000
v -4.000000 0.861040 0.923879
v -4.000000 1.250035 0.831469
v -6.000000 1.870808 0.555569
v -4.000000 1.870808 0.555569
v -6.000000 2.078730 0.382682
v -4.000000 2.078730 0.382682
v -4.000000 2.206768 0.195089
v -4.025000 2.300000 0.000000
v -4.025000 2.256767 -0.195090
v -4.025000 2.128729 -0.382683
v -4.025000 1.920807 -0.555570
v -4.025000 1.640990 -0.707106
v -4.025000 1.300033 -0.831469
v -4.025000 0.911038 -0.923879
v -4.025000 0.488953 -0.980785
v -4.025000 0.050000 -1.000000
v -4.025000 0.050002 1.000000
v -4.025000 0.488956 0.980785
v -4.025000 0.911040 0.923879
v -4.025000 1.300035 0.831469
v -4.025000 1.640992 0.707106
v -4.025000 1.920809 0.555569
v -4.025000 2.128731 0.382682
v -4.025000 2.256768 0.195089
v -4.075000 2.300000 0.000000
v -4.075000 2.256767 -0.195090
v -4.075000 2.128729 -0.382683
v -4.075000 1.920807 -0.555570
v -4.075000 1.640990 -0.707106
v -4.075000 1.300033 -0.831469
v -4.075000 0.911038 -0.923879
v -4.075000 0.488953 -0.980785
v -4.075000 0.050000 -1.000000
v -4.075000 0.050002 1.000000
v -4.075000 0.488956 0.980785
v -4.075000 0.911040 0.923879
v -4.075000 1.300035 0.831469
v -4.075000 1.640992 0.707106
v -4.075000 1.920809 0.555569
v -4.075000 2.128731 0.382682
v -4.075000 2.256768 0.195089
v -4.000000 1.590990 -0.707106
v -4.000000 1.250033 -0.831469
v -4.000000 0.861038 -0.923879
v -4.000000 0.438953 -0.980785
v -4.000000 0.000002 1.000000
v -4.000000 0.438956 0.980785
v -4.000000 1.590992 0.707106
v -3.975000 2.300000 0.000000
v -3.975000 2.256767 -0.195090
v -3.975000 2.128729 -0.382683
v -3.975000 1.920807 -0.555570
v -3.975000 1.640990 -0.707106
v -3.975000 1.300033 -0.831469
v -3.975000 0.911038 -0.923879
v -3.975000 0.488953 -0.980785
v -3.975000 0.050000 -1.000000
v -3.975000 0.050002 1.000000
v -3.975000 0.488956 0.980785
v -3.975000 0.911040 0.923879
v -3.975000 1.300035 0.831469
v -3.975000 1.640992 0.707106
v -3.975000 1.920809 0.555569
v -3.975000 2.128731 0.382682
v -3.975000 2.256768 0.195089
v -3.925000 2.300000 0.000000
v -3.925000 2.256767 -0.195090
v -3.925000 2.128729 -0.382683
v -3.925000 1.920807 -0.555570
v -3.925000 1.640990 -0.707106
v -3.925000 1.300033 -0.831469
v -3.925000 0.911038 -0.923879
v -3.925000 0.488953 -0.980785
v -3.925000 0.050000 -1.000000
v -3.925000 0.050002 1.000000
v -3.925000 0.488956 0.980785
v -3.925000 0.911040 0.923879
v -3.925000 1.300035 0.831469
v -3.925000 1.640992 0.707106
v -3.925000 1.920809 0.555569
v -3.925000 2.128731 0.382682
v -3.925000 2.256768 0.195089
vn -0.000000 0.993900 -0.110100
vn -0.000000 0.946400 -0.323000
vn -0.000000 0.857000 -0.515300
vn 0.000000 0.734700 -0.678400
vn 0.000000 0.589300 -0.807900
vn -0.000000 0.429100 -0.903200
vn -0.000000 0.260300 -0.965500
vn -0.000000 0.087200 -0.996200
vn 0.000000 0.087200 0.996200
vn 0.000000 0.260300 0.965500
vn 0.000000 0.429100 0.903200
vn 0.000000 0.589300 0.807900
vn 0.000000 0.734700 0.678400
vn 0.000000 0.857000 0.515300
vn 0.000000 0.946400 0.323000
vn 0.000000 0.993900 0.110100
vn 1.000000 -0.000000 -0.000000
vn -1.000000 -0.000000 0.000000
vn -0.000000 0.995200 -0.098000
vn -0.000000 0.956900 -0.290300
vn -0.000000 0.881900 -0.471400
vn 0.000000 0.773000 -0.634400
vn 0.000000 0.634400 -0.773000
vn 0.000000 0.471400 -0.881900
vn -0.000000 0.290300 -0.956900
vn 0.000000 0.098000 -0.995200
vn 0.000000 0.098000 0.995200
vn 0.000000 0.290300 0.956900
vn 0.000000 0.471400 0.881900
vn 0.000000 0.634400 0.773000
vn 0.000000 0.773000 0.634400
vn 0.000000 0.881900 0.471400
vn 0.000000 0.956900 0.290300
vn 0.000000 0.995200 0.098000
vn -0.351100 0.936300 0.000000
vn 0.000000 0.957800 -0.287300
vn 0.351100 0.936300 0.000000
vn 0.000000 0.957800 0.287300
vn 0.000000 -1.000000 0.000000
vn 0.000000 1.000000 0.000000
vn -0.565300 -0.282700 -0.774900
vn -0.565300 -0.282700 0.774900
vn -0.689700 -0.344800 -0.636700
vn -0.419600 -0.209800 0.883100
vn -0.787700 -0.393900 -0.473700
vn -0.258200 -0.129100 0.957400
vn -0.855500 -0.427700 -0.291900
vn -0.087100 -0.043600 0.995200
vn -0.890100 -0.445000 0.098600
vn -0.890100 -0.445000 -0.098600
vn -0.087100 -0.043600 -0.995200
vn -0.855500 -0.427700 0.291900
vn -0.258200 -0.129100 -0.957400
vn -0.787700 -0.393900 0.473700
vn -0.419600 -0.209800 -0.883100
vn -0.689700 -0.344800 0.636800
vn 0.000000 -0.639300 0.768900
vn 0.000000 -0.231100 -0.972900
vn 0.000000 -0.476200 0.879300
vn 0.000000 -0.342700 -0.939500
vn 0.000000 -0.342700 0.939500
vn 0.000000 -0.476200 -0.879300
vn 0.000000 -0.231100 0.972900
vn 0.000000 -0.639400 -0.768900
vn 0.000000 -0.133600 0.991000
vn 0.000000 -0.826000 -0.563700
vn 0.000000 -0.043700 0.999000
vn 0.000000 -0.976300 0.216400
vn 0.000000 -0.976300 -0.216400
vn 0.000000 -0.043700 -0.999000
vn 0.000000 -0.826000 0.563700
vn 0.000000 -0.133600 -0.991000
vn 0.565300 -0.282700 -0.774900
vn 0.565300 -0.282700 0.774900
vn 0.689700 -0.344800 -0.636700
vn 0.419600 -0.209800 0.883100
vn 0.787700 -0.393900 -0.473700
vn 0.258200 -0.129100 0.957400
vn 0.855500 -0.427700 -0.291900
vn 0.087100 -0.043600 0.995200
vn 0.890100 -0.445000 0.098600
vn 0.890100 -0.445000 -0.098600
vn 0.087100 -0.043600 -0.995200
vn 0.855500 -0.427700 0.291900
vn 0.258200 -0.129100 -0.957400
vn 0.787700 -0.393900 0.473700
vn 0.419600 -0.209800 -0.883100
vn 0.689700 -0.344800 0.636700
vn 0.000000 -0.639300 -0.768900
vn -0.000000 0.976300 -0.216400
vn -0.000000 0.826000 -0.563700
vn -0.000000 0.639400 -0.768900
vn -0.000000 0.476200 -0.879300
vn -0.000000 0.342700 -0.939500
vn 0.000000 0.231100 -0.972900
vn 0.000000 0.133600 -0.991000
vn -0.000000 0.043700 -0.999000
vn 0.000000 0.043700 0.999000
vn 0.000000 0.133600 0.991000
vn 0.000000 0.231100 0.972900
vn 0.000000 0.342700 0.939500
vn 0.000000 0.476200 0.879300
vn 0.000000 0.639400 0.768900
vn 0.000000 0.826000 0.563700
vn 0.000000 0.976300 0.216400
vn 0.000000 -0.639400 0.768900
usemtl None
s off
f 1//1 2//1 4//1 3//1
f 3//2 4//2 6//2 5//2
f 5//3 6//3 8//3 7//3
f 7//4 8//4 10//4 9//4
f 9//5 10//5 12//5 11//5
f 11//6 12//6 14//6 13//6
f 13//7 14//7 16//7 15//7
f 15//8 16//8 18//8 17//8
f 19//9 20//9 22//9 21//9
f 21//10 22//10 24//10 23//10
f 23//11 24//11 26//11 25//11
f 25//12 26//12 28//12 27//12
f 27//13 28//13 30//13 29//13
f 29//14 30//14 32//14 31//14
f 31//15 32//15 34//15 33//15
f 33//16 34//16 2//16 1//16
f 4//17 2//17 34//17 32//17 30//17 28//17 26//17 24//17 22//17 20//17 18//17 16//17 14//17 12//17 10//17 8//17 6//17
f 1//18 3//18 5//18 7//18 9//18 11//18 13//18 15//18 17//18 19//18 21//18 23//18 25//18 27//18 29//18 31//18 33//18
f 35//19 36//19 38//19 37//19
f 37//20 38//20 40//20 39//20
f 39//21 40//21 42//21 41//21
f 41//22 42//22 44//22 43//22
f 43//23 44//23 46//23 45//23
f 45//24 46//24 48//24 47//24
f 47//25 48//25 50//25 49//25
f 49//26 50//26 52//26 51//26
f 53//27 54//27 56//27 55//27
f 55//28 56//28 58//28 57//28
f 57//29 58//29 60//29 59//29
f 59//30 60//30 62//30 61//30
f 61//31 62//31 64//31 63//31
f 63//32 64//32 66//32 65//32
f 65//33 66//33 68//33 67//33
f 67//34 68//34 36//34 35//34
f 70//35 72//35 71//35 69//35
f 72//36 76//36 75//36 71//36
f 76//37 74//37 73//37 75//37
f 74//38 70//38 69//38 73//38
f 69//39 71//39 75//39 73//39
f 74//40 76//40 72//40 70//40
f 35//18 37//18 39//18 41//18 43//18 45//18 47//18 49//18 51//18 53//18 55//18 57//18 59//18 61//18 63//18 65//18 67//18
f 124//41 123//41 89//41 90//41
f 116//42 115//42 81//42 82//42
f 166//43 124//43 90//43 91//43
f 117//44 116//44 82//44 83//44
f 168//45 166//45 91//45 92//45
f 118//46 117//46 83//46 84//46
f 125//47 168//47 92//47 93//47
f 119//48 118//48 84//48 85//48
f 112//49 111//49 77//49 78//49
f 111//50 125//50 93//50 77//50
f 121//51 120//51 86//51 87//51
f 113//52 112//52 78//52 79//52
f 122//53 121//53 87//53 88//53
f 114//54 113//54 79//54 80//54
f 123//55 122//55 88//55 89//55
f 115//56 114//56 80//56 81//56
f 80//57 79//57 96//57 97//57
f 89//58 88//58 105//58 106//58
f 81//59 80//59 97//59 98//59
f 90//60 89//60 106//60 107//60
f 82//61 81//61 98//61 99//61
f 91//62 90//62 107//62 108//62
f 83//63 82//63 99//63 100//63
f 92//64 91//64 108//64 109//64
f 84//65 83//65 100//65 101//65
f 93//66 92//66 109//66 110//66
f 85//67 84//67 101//67 102//67
f 78//68 77//68 94//68 95//68
f 77//69 93//69 110//69 94//69
f 87//70 86//70 103//70 104//70
f 79//71 78//71 95//71 96//71
f 88//72 87//72 104//72 105//72
f 124//73 139//73 138//73 123//73
f 116//74 131//74 130//74 115//74
f 166//75 140//75 139//75 124//75
f 117//76 132//76 131//76 116//76
f 168//77 141//77 140//77 166//77
f 118//78 133//78 132//78 117//78
f 125//79 142//79 141//79 168//79
f 119//80 134//80 133//80 118//80
f 112//81 127//81 126//81 111//81
f 111//82 126//82 142//82 125//82
f 121//83 136//83 135//83 120//83
f 113//84 128//84 127//84 112//84
f 122//85 137//85 136//85 121//85
f 114//86 129//86 128//86 113//86
f 123//87 138//87 137//87 122//87
f 115//88 130//88 129//88 114//88
f 129//57 146//57 145//57 128//57
f 138//58 155//58 154//58 137//58
f 130//59 147//59 146//59 129//59
f 139//60 156//60 155//60 138//60
f 131//61 148//61 147//61 130//61
f 140//62 157//62 156//62 139//62
f 132//63 149//63 148//63 131//63
f 141//89 158//89 157//89 140//89
f 133//65 150//65 149//65 132//65
f 142//66 159//66 158//66 141//66
f 134//67 151//67 150//67 133//67
f 127//68 144//68 143//68 126//68
f 126//69 143//69 159//69 142//69
f 136//70 153//70 152//70 135//70
f 128//71 145//71 144//71 127//71
f 137//72 154//72 153//72 136//72
f 111//90 1//90 160//90 112//90
f 112//91 160//91 161//91 113//91
f 113//92 161//92 162//92 114//92
f 114//93 162//93 205//93 115//93
f 115//94 205//94 206//94 116//94
f 116//95 206//95 207//95 117//95
f 117//96 207//96 208//96 118//96
f 118//97 208//97 163//97 119//97
f 120//98 209//98 210//98 121//98
f 121//99 210//99 164//99 122//99
f 122//100 164//100 165//100 123//100
f 123//101 165//101 211//101 124//101
f 124//102 211//102 167//102 166//102
f 166//103 167//103 169//103 168//103
f 168//104 169//104 170//104 125//104
f 125//105 170//105 1//105 111//105
f 211//41 165//41 183//41 184//41
f 206//42 205//42 175//42 176//42
f 167//43 211//43 184//43 185//43
f 207//44 206//44 176//44 177//44
f 169//45 167//45 185//45 186//45
f 208//46 207//46 177//46 178//46
f 170//47 169//47 186//47 187//47
f 163//48 208//48 178//48 179//48
f 160//49 1//49 171//49 172//49
f 1//50 170//50 187//50 171//50
f 210//51 209//51 180//51 181//51
f 161//52 160//52 172//52 173//52
f 164//53 210//53 181//53 182//53
f 162//54 161//54 173//54 174//54
f 165//55 164//55 182//55 183//55
f 205//56 162//56 174//56 175//56
f 174//106 173//106 190//106 191//106
f 183//58 182//58 199//58 200//58
f 175//59 174//59 191//59 192//59
f 184//60 183//60 200//60 201//60
f 176//61 175//61 192//61 193//61
f 185//62 184//62 201//62 202//62
f 177//63 176//63 193//63 194//63
f 186//64 185//64 202//64 203//64
f 178//65 177//65 194//65 195//65
f 187//66 186//66 203//66 204//66
f 179//67 178//67 195//67 196//67
f 172//68 171//68 188//68 189//68
f 171//69 187//69 204//69 188//69
f 181//70 180//70 197//70 198//70
f 173//71 172//71 189//71 190//71
f 182//72 181//72 198//72 199//72
f 211//73 225//73 224//73 165//73
f 206//74 217//74 216//74 205//74
f 167//75 226//75 225//75 211//75
f 207//76 218//76 217//76 206//76
f 169//77 227//77 226//77 167//77
f 208//78 219//78 218//78 207//78
f 170//79 228//79 227//79 169//79
f 163//80 220//80 219//80 208//80
f 160//81 213//81 212//81 1//81
f 1//82 212//82 228//82 170//82
f 210//83 222//83 221//83 209//83
f 161//84 214//84 213//84 160//84
f 164//85 223//85 222//85 210//85
f 162//86 215//86 214//86 161//86
f 165//87 224//87 223//87 164//87
f 205//88 216//88 215//88 162//88
f 215//57 232//57 231//57 214//57
f 224//58 241//58 240//58 223//58
f 216//59 233//59 232//59 215//59
f 225//60 242//60 241//60 224//60
f 217//61 234//61 233//61 216//61
f 226//62 243//62 242//62 225//62
f 218//63 235//63 234//63 217//63
f 227//64 244//64 243//64 226//64
f 219//65 236//65 235//65 218//65
f 228//66 245//66 244//66 227//66
f 220//67 237//67 236//67 219//67
f 213//68 230//68 229//68 212//68
f 212//69 229//69 245//69 228//69
f 222//70 239//70 238//70 221//70
f 214//71 231//71 230//71 213//71
f 223//72 240//72 239//72 222//72
