# Blender v2.77 (sub 0) OBJ File: 'solar_90.blend'
# www.blender.org
mtllib solarpanel.mtl
g Plane
v -1.000000 0.000000 1.000000
v 1.000000 0.000000 1.000000
v -1.000000 0.000000 -1.000000
v 1.000000 0.000000 -1.000000
v -1.000000 0.000000 1.000000
v 1.000000 0.000000 1.000000
v -1.000000 0.000000 -1.000000
v 1.000000 0.000000 -1.000000
vn 0.0000 1.0000 0.0000
vn 0.0000 -1.0000 0.0000
usemtl Material
s off
f 1//1 2//1 4//1 3//1
f 5//2 7//2 8//2 6//2
g Cylinder.001
v 1.000000 1.100000 -0.000000
v -1.000000 1.100000 0.000000
v 1.000000 1.098079 0.019509
v -1.000000 1.098078 0.019509
v 1.000000 1.092388 0.038268
v -1.000000 1.092388 0.038268
v 1.000000 1.083147 0.055557
v -1.000000 1.083147 0.055557
v 1.000000 1.070711 0.070711
v -1.000000 1.070711 0.070711
v 1.000000 1.055557 0.083147
v -1.000000 1.055557 0.083147
v 1.000000 1.038268 0.092388
v -1.000000 1.038268 0.092388
v 1.000000 1.019509 0.098078
v -1.000000 1.019509 0.098079
v 1.000000 1.000000 0.100000
v -1.000000 1.000000 0.100000
v 1.000000 0.980491 0.098078
v -1.000000 0.980491 0.098079
v 1.000000 0.961732 0.092388
v -1.000000 0.961732 0.092388
v 1.000000 0.944443 0.083147
v -1.000000 0.944443 0.083147
v 1.000000 0.929289 0.070711
v -1.000000 0.929289 0.070711
v 1.000000 0.916853 0.055557
v -1.000000 0.916853 0.055557
v 1.000000 0.907612 0.038268
v -1.000000 0.907612 0.038268
v 1.000000 0.901922 0.019509
v -1.000000 0.901921 0.019509
v 1.000000 0.900000 -0.000000
v -1.000000 0.900000 0.000000
v 1.000000 0.901922 -0.019509
v -1.000000 0.901921 -0.019509
v 1.000000 0.907612 -0.038268
v -1.000000 0.907612 -0.038268
v 1.000000 0.916853 -0.055557
v -1.000000 0.916853 -0.055557
v 1.000000 0.929289 -0.070711
v -1.000000 0.929289 -0.070711
v 1.000000 0.944443 -0.083147
v -1.000000 0.944443 -0.083147
v 1.000000 0.961732 -0.092388
v -1.000000 0.961732 -0.092388
v 1.000000 0.980491 -0.098079
v -1.000000 0.980491 -0.098078
v 1.000000 1.000000 -0.100000
v -1.000000 1.000000 -0.100000
v 1.000000 1.019509 -0.098079
v -1.000000 1.019509 -0.098078
v 1.000000 1.038268 -0.092388
v -1.000000 1.038268 -0.092388
v 1.000000 1.055557 -0.083147
v -1.000000 1.055557 -0.083147
v 1.000000 1.070711 -0.070711
v -1.000000 1.070711 -0.070711
v 1.000000 1.083147 -0.055557
v -1.000000 1.083147 -0.055557
v 1.000000 1.092388 -0.038268
v -1.000000 1.092388 -0.038268
v 1.000000 1.098079 -0.019509
v -1.000000 1.098078 -0.019509
v 0.100000 0.000000 -0.000000
v 0.100000 1.000000 -0.000000
v 0.098079 0.000000 0.019509
v 0.098079 1.000000 0.019509
v 0.092388 0.000000 0.038268
v 0.092388 1.000000 0.038268
v 0.083147 0.000000 0.055557
v 0.083147 1.000000 0.055557
v 0.070711 0.000000 0.070711
v 0.070711 1.000000 0.070711
v 0.055557 0.000000 0.083147
v 0.055557 1.000000 0.083147
v 0.038268 0.000000 0.092388
v 0.038268 1.000000 0.092388
v 0.019509 0.000000 0.098079
v 0.019509 1.000000 0.098079
v 0.000000 0.000000 0.100000
v 0.000000 1.000000 0.100000
v -0.019509 0.000000 0.098079
v -0.019509 1.000000 0.098079
v -0.038268 0.000000 0.092388
v -0.038268 1.000000 0.092388
v -0.055557 0.000000 0.083147
v -0.055557 1.000000 0.083147
v -0.070711 0.000000 0.070711
v -0.070711 1.000000 0.070711
v -0.083147 0.000000 0.055557
v -0.083147 1.000000 0.055557
v -0.092388 0.000000 0.038268
v -0.092388 1.000000 0.038268
v -0.098079 0.000000 0.019509
v -0.098079 1.000000 0.019509
v -0.100000 0.000000 -0.000000
v -0.100000 1.000000 -0.000000
v -0.098079 0.000000 -0.019509
v -0.098079 1.000000 -0.019509
v -0.092388 0.000000 -0.038268
v -0.092388 1.000000 -0.038268
v -0.083147 0.000000 -0.055557
v -0.083147 1.000000 -0.055557
v -0.070711 0.000000 -0.070711
v -0.070711 1.000000 -0.070711
v -0.055557 0.000000 -0.083147
v -0.055557 1.000000 -0.083147
v -0.038268 0.000000 -0.092388
v -0.038268 1.000000 -0.092388
v -0.019509 0.000000 -0.098079
v -0.019509 1.000000 -0.098079
v 0.000000 0.000000 -0.100000
v 0.000000 1.000000 -0.100000
v 0.019509 0.000000 -0.098079
v 0.019509 1.000000 -0.098079
v 0.038268 0.000000 -0.092388
v 0.038268 1.000000 -0.092388
v 0.055557 0.000000 -0.083147
v 0.055557 1.000000 -0.083147
v 0.070711 0.000000 -0.070711
v 0.070711 1.000000 -0.070711
v 0.083147 0.000000 -0.055557
v 0.083147 1.000000 -0.055557
v 0.092388 0.000000 -0.038268
v 0.092388 1.000000 -0.038268
v 0.098079 0.000000 -0.019509
v 0.098079 1.000000 -0.019509
v 1.000000 1.100000 -0.000000
v 1.000000 1.098079 0.019509
v -1.000000 1.098078 0.019509
v -1.000000 1.100000 0.000000
v 1.000000 1.092388 0.038268
v -1.000000 1.092388 0.038268
v 1.000000 1.083147 0.055557
v -1.000000 1.083147 0.055557
v 1.000000 1.070711 0.070711
v -1.000000 1.070711 0.070711
v 1.000000 1.055557 0.083147
v -1.000000 1.055557 0.083147
v 1.000000 1.038268 0.092388
v -1.000000 1.038268 0.092388
v 1.000000 1.019509 0.098078
v -1.000000 1.019509 0.098079
v 1.000000 1.000000 0.100000
v -1.000000 1.000000 0.100000
v 1.000000 0.980491 0.098078
v -1.000000 0.980491 0.098079
v 1.000000 0.961732 0.092388
v -1.000000 0.961732 0.092388
v 1.000000 0.944443 0.083147
v -1.000000 0.944443 0.083147
v 1.000000 0.929289 0.070711
v -1.000000 0.929289 0.070711
v 1.000000 0.916853 0.055557
v -1.000000 0.916853 0.055557
v 1.000000 0.907612 0.038268
v -1.000000 0.907612 0.038268
v 1.000000 0.901922 0.019509
v -1.000000 0.901921 0.019509
v 1.000000 0.900000 -0.000000
v -1.000000 0.900000 0.000000
v 1.000000 0.901922 -0.019509
v -1.000000 0.901921 -0.019509
v 1.000000 0.907612 -0.038268
v -1.000000 0.907612 -0.038268
v 1.000000 0.916853 -0.055557
v -1.000000 0.916853 -0.055557
v 1.000000 0.929289 -0.070711
v -1.000000 0.929289 -0.070711
v 1.000000 0.944443 -0.083147
v -1.000000 0.944443 -0.083147
v 1.000000 0.961732 -0.092388
v -1.000000 0.961732 -0.092388
v 1.000000 0.980491 -0.098079
v -1.000000 0.980491 -0.098078
v 1.000000 1.000000 -0.100000
v -1.000000 1.000000 -0.100000
v 1.000000 1.019509 -0.098079
v -1.000000 1.019509 -0.098078
v 1.000000 1.038268 -0.092388
v -1.000000 1.038268 -0.092388
v 1.000000 1.055557 -0.083147
v -1.000000 1.055557 -0.083147
v 1.000000 1.070711 -0.070711
v -1.000000 1.070711 -0.070711
v 1.000000 1.083147 -0.055557
v -1.000000 1.083147 -0.055557
v 1.000000 1.092388 -0.038268
v -1.000000 1.092388 -0.038268
v 1.000000 1.098079 -0.019509
v -1.000000 1.098078 -0.019509
v 0.100000 0.000000 -0.000000
v 0.098079 0.000000 0.019509
v 0.098079 1.000000 0.019509
v 0.100000 1.000000 -0.000000
v 0.092388 0.000000 0.038268
v 0.092388 1.000000 0.038268
v 0.083147 0.000000 0.055557
v 0.083147 1.000000 0.055557
v 0.070711 0.000000 0.070711
v 0.070711 1.000000 0.070711
v 0.055557 0.000000 0.083147
v 0.055557 1.000000 0.083147
v 0.038268 0.000000 0.092388
v 0.038268 1.000000 0.092388
v 0.019509 0.000000 0.098079
v 0.019509 1.000000 0.098079
v 0.000000 0.000000 0.100000
v 0.000000 1.000000 0.100000
v -0.019509 0.000000 0.098079
v -0.019509 1.000000 0.098079
v -0.038268 0.000000 0.092388
v -0.038268 1.000000 0.092388
v -0.055557 0.000000 0.083147
v -0.055557 1.000000 0.083147
v -0.070711 0.000000 0.070711
v -0.070711 1.000000 0.070711
v -0.083147 0.000000 0.055557
v -0.083147 1.000000 0.055557
v -0.092388 0.000000 0.038268
v -0.092388 1.000000 0.038268
v -0.098079 0.000000 0.019509
v -0.098079 1.000000 0.019509
v -0.100000 0.000000 -0.000000
v -0.100000 1.000000 -0.000000
v -0.098079 0.000000 -0.019509
v -0.098079 1.000000 -0.019509
v -0.092388 0.000000 -0.038268
v -0.092388 1.000000 -0.038268
v -0.083147 0.000000 -0.055557
v -0.083147 1.000000 -0.055557
v -0.070711 0.000000 -0.070711
v -0.070711 1.000000 -0.070711
v -0.055557 0.000000 -0.083147
v -0.055557 1.000000 -0.083147
v -0.038268 0.000000 -0.092388
v -0.038268 1.000000 -0.092388
v -0.019509 0.000000 -0.098079
v -0.019509 1.000000 -0.098079
v 0.000000 0.000000 -0.100000
v 0.000000 1.000000 -0.100000
v 0.019509 0.000000 -0.098079
v 0.019509 1.000000 -0.098079
v 0.038268 0.000000 -0.092388
v 0.038268 1.000000 -0.092388
v 0.055557 0.000000 -0.083147
v 0.055557 1.000000 -0.083147
v 0.070711 0.000000 -0.070711
v 0.070711 1.000000 -0.070711
v 0.083147 0.000000 -0.055557
v 0.083147 1.000000 -0.055557
v 0.092388 0.000000 -0.038268
v 0.092388 1.000000 -0.038268
v 0.098079 0.000000 -0.019509
v 0.098079 1.000000 -0.019509
v -1.000000 0.000000 -1.000000
v -1.000000 0.200000 -1.000000
v 1.000000 0.000000 -1.000000
v 1.000000 0.200000 -1.000000
v -1.000000 0.000000 1.000000
v -1.000000 0.200000 1.000000
v 1.000000 0.000000 1.000000
v 1.000000 0.200000 1.000000
vn -0.0000 0.0000 -1.0000
vn 1.0000 0.0000 -0.0000
vn 0.0000 0.0000 1.0000
vn -1.0000 0.0000 0.0000
vn 0.0000 -1.0000 -0.0000
vn 0.0000 1.0000 0.0000
vn 0.0000 0.9808 0.1951
vn 0.0000 0.9239 0.3827
vn 0.0000 0.8314 0.5556
vn 0.0000 0.7071 0.7071
vn 0.0000 0.5556 0.8314
vn 0.0000 0.3827 0.9239
vn 0.0000 0.1951 0.9808
vn 0.0000 -0.1951 0.9808
vn 0.0000 -0.3827 0.9239
vn 0.0000 -0.5556 0.8314
vn 0.0000 -0.7071 0.7071
vn 0.0000 -0.8314 0.5556
vn 0.0000 -0.9239 0.3827
vn 0.0000 -0.9808 0.1951
vn 0.0000 -0.9808 -0.1951
vn 0.0000 -0.9239 -0.3827
vn 0.0000 -0.8314 -0.5556
vn 0.0000 -0.7071 -0.7071
vn 0.0000 -0.5556 -0.8314
vn 0.0000 -0.3827 -0.9239
vn 0.0000 -0.1951 -0.9808
vn 0.0000 0.1951 -0.9808
vn 0.0000 0.3827 -0.9239
vn 0.0000 0.5556 -0.8314
vn 0.0000 0.7071 -0.7071
vn 0.0000 0.8314 -0.5556
vn 0.0000 0.9239 -0.3827
vn 0.0000 0.9808 -0.1951
vn 0.9808 0.0000 0.1951
vn 0.9239 0.0000 0.3827
vn 0.8314 0.0000 0.5556
vn 0.7071 0.0000 0.7071
vn 0.5556 0.0000 0.8314
vn 0.3827 0.0000 0.9239
vn 0.1951 0.0000 0.9808
vn -0.1951 0.0000 0.9808
vn -0.3827 0.0000 0.9239
vn -0.5556 0.0000 0.8314
vn -0.7071 0.0000 0.7071
vn -0.8314 0.0000 0.5556
vn -0.9239 0.0000 0.3827
vn -0.9808 0.0000 0.1951
vn -0.9808 0.0000 -0.1951
vn -0.9239 0.0000 -0.3827
vn -0.8314 0.0000 -0.5556
vn -0.7071 0.0000 -0.7071
vn -0.5556 0.0000 -0.8314
vn -0.3827 0.0000 -0.9239
vn -0.1951 0.0000 -0.9808
vn 0.1951 0.0000 -0.9808
vn 0.3827 0.0000 -0.9239
vn 0.5556 0.0000 -0.8314
vn 0.7071 0.0000 -0.7071
vn 0.8314 0.0000 -0.5556
vn 0.9239 0.0000 -0.3827
vn 0.9808 0.0000 -0.1951
usemtl Steel22
s off
f 266//3 268//3 267//3 265//3
f 268//4 272//4 271//4 267//4
f 272//5 270//5 269//5 271//5
f 270//6 266//6 265//6 269//6
f 265//7 267//7 271//7 269//7
f 270//8 272//8 268//8 266//8
s 1
f 137//8 140//8 139//9 138//9
f 138//9 139//9 142//10 141//10
f 141//10 142//10 144//11 143//11
f 143//11 144//11 146//12 145//12
f 145//12 146//12 148//13 147//13
f 147//13 148//13 150//14 149//14
f 149//14 150//14 152//15 151//15
f 151//15 152//15 154//5 153//5
f 153//5 154//5 156//16 155//16
f 155//16 156//16 158//17 157//17
f 157//17 158//17 160//18 159//18
f 159//18 160//18 162//19 161//19
f 161//19 162//19 164//20 163//20
f 163//20 164//20 166//21 165//21
f 165//21 166//21 168//22 167//22
f 167//22 168//22 170//7 169//7
f 169//7 170//7 172//23 171//23
f 171//23 172//23 174//24 173//24
f 173//24 174//24 176//25 175//25
f 175//25 176//25 178//26 177//26
f 177//26 178//26 180//27 179//27
f 179//27 180//27 182//28 181//28
f 181//28 182//28 184//29 183//29
f 183//29 184//29 186//3 185//3
f 185//3 186//3 188//30 187//30
f 187//30 188//30 190//31 189//31
f 189//31 190//31 192//32 191//32
f 191//32 192//32 194//33 193//33
f 193//33 194//33 196//34 195//34
f 195//34 196//34 198//35 197//35
f 12//6 10//6 200//6 70//6 68//6 66//6 64//6 62//6 60//6 58//6 56//6 54//6 52//6 50//6 48//6 46//6 44//6 42//6 40//6 38//6 36//6 34//6 32//6 30//6 28//6 26//6 24//6 22//6 20//6 18//6 16//6 14//6
f 197//35 198//35 72//36 199//36
f 199//36 72//36 140//8 137//8
f 9//4 11//4 13//4 15//4 17//4 19//4 21//4 23//4 25//4 27//4 29//4 31//4 33//4 35//4 37//4 39//4 41//4 43//4 45//4 47//4 49//4 51//4 53//4 55//4 57//4 59//4 61//4 63//4 65//4 67//4 69//4 71//4
f 201//4 204//4 203//37 202//37
f 202//37 203//37 206//38 205//38
f 205//38 206//38 208//39 207//39
f 207//39 208//39 210//40 209//40
f 209//40 210//40 212//41 211//41
f 211//41 212//41 214//42 213//42
f 213//42 214//42 216//43 215//43
f 215//43 216//43 218//5 217//5
f 217//5 218//5 220//44 219//44
f 219//44 220//44 222//45 221//45
f 221//45 222//45 224//46 223//46
f 223//46 224//46 226//47 225//47
f 225//47 226//47 228//48 227//48
f 227//48 228//48 230//49 229//49
f 229//49 230//49 232//50 231//50
f 231//50 232//50 234//6 233//6
f 233//6 234//6 236//51 235//51
f 235//51 236//51 238//52 237//52
f 237//52 238//52 240//53 239//53
f 239//53 240//53 242//54 241//54
f 241//54 242//54 244//55 243//55
f 243//55 244//55 246//56 245//56
f 245//56 246//56 248//57 247//57
f 247//57 248//57 250//3 249//3
f 249//3 250//3 252//58 251//58
f 251//58 252//58 254//59 253//59
f 253//59 254//59 256//60 255//60
f 255//60 256//60 258//61 257//61
f 257//61 258//61 260//62 259//62
f 259//62 260//62 262//63 261//63
f 76//8 74//8 264//8 134//8 132//8 130//8 128//8 126//8 124//8 122//8 120//8 118//8 116//8 114//8 112//8 110//8 108//8 106//8 104//8 102//8 100//8 98//8 96//8 94//8 92//8 90//8 88//8 86//8 84//8 82//8 80//8 78//8
f 261//63 262//63 136//64 263//64
f 263//64 136//64 204//4 201//4
f 73//7 75//7 77//7 79//7 81//7 83//7 85//7 87//7 89//7 91//7 93//7 95//7 97//7 99//7 101//7 103//7 105//7 107//7 109//7 111//7 113//7 115//7 117//7 119//7 121//7 123//7 125//7 127//7 129//7 131//7 133//7 135//7
